<svg xmlns="http://www.w3.org/2000/svg" xmlns:xlink="http://www.w3.org/1999/xlink" viewBox="0 0 170.01 221.27"><defs><style>.cls-1{fill:none;}.cls-2{clip-path:url(#clip-path);}.cls-3{fill:#4da6ff;}.cls-4{fill:#fcee21;}.cls-5{fill:#8cc63f;}.cls-6{fill:#f33;}.cls-7,.cls-8{fill:#fff;}.cls-7{stroke:#000;stroke-miterlimit:10;stroke-width:4.95px;}.cls-9{fill:#446785;}.cls-10{fill:#d8d9da;}.cls-11{fill:#2c5672;}.cls-12{fill:#b1b2b4;}.cls-13{fill:#5582a0;}</style><clipPath id="clip-path"><polygon class="cls-1" points="0 47.82 0 143.45 85.01 191.26 170.01 143.45 170.01 47.82 85.01 0 0 47.82"/></clipPath></defs><g id="Texto"><g class="cls-2"><polygon class="cls-3" points="72.81 126.72 -33.87 64.95 -33.87 -92.26 72.81 -136.45 72.81 126.72"/><polygon class="cls-4" points="206.69 99.09 100.02 37.33 100.02 -119.89 206.69 -164.08 206.69 99.09"/><polygon class="cls-3" points="72.81 65.09 -33.87 3.33 -33.87 -153.89 72.81 -198.08 72.81 65.09"/><polygon class="cls-5" points="100.02 332.86 206.69 271.1 206.69 129.63 100.02 69.69 100.02 332.86"/><polygon class="cls-6" points="-17 248.65 72.81 276.27 72.81 156.39 -14.84 107.84 -17 248.65"/><polygon class="cls-7" points="99.88 38.68 99.88 -10.63 72.26 -10.63 72.26 23.12 72.26 54.83 72.26 126.19 -50.77 57 -64.33 81.08 72.26 157.9 72.26 201.89 99.88 201.89 99.88 173.46 99.88 141.75 99.88 70.39 205.91 130.02 219.47 105.94 99.88 38.68"/></g><path d="M85,8.52l77.58,43.64v87L85,182.74,7.43,139.11v-87L85,8.52M85,0,0,47.82v95.63l85,47.82,85-47.82V47.82L85,0Z"/><path d="M101.05,220.47a39.08,39.08,0,0,1-8.59-2.53L88.1,216.1l.58-6.17-5.54,2.75-3.29-3.37a39,39,0,0,1-5.46-7.11l-2.45-4,4.1-4.66-6.11-1-.66-4.7a40.11,40.11,0,0,1-.37-4.21,39.25,39.25,0,0,1,.14-4.71l.42-4.69,6-1.36-4.32-4.42,2.2-4.17a38.09,38.09,0,0,1,5.07-7.38l3.1-3.55,5.69,2.45-.9-6.11,4.22-2.08c.83-.41,1.7-.79,2.75-1.21a23.94,23.94,0,0,1,4.25-1.41c.49-.13,1-.26,1.46-.37l4.6-1.05,3.16,5.33,2.86-5.46,4.64.8a38.14,38.14,0,0,1,8.36,2.46l4.34,1.83-.55,6.16,5.54-2.78,3.3,3.39a38.54,38.54,0,0,1,5.48,7.08l2.42,4L139.11,171l6.09,1,.7,4.65a38.47,38.47,0,0,1,.28,8.94l-.39,4.73-6,1.37,4.34,4.4-2.19,4.18a38.29,38.29,0,0,1-5,7.4l-3.1,3.56-5.68-2.43.92,6.12L124.75,217a38.89,38.89,0,0,1-8.43,3l-4.61,1.07-3.16-5.33-2.85,5.49Z"/><path class="cls-8" d="M139.74,185.08a34.25,34.25,0,0,0,.1-3.8,31.5,31.5,0,0,0-.34-3.66l-6.38-1.06-2.17-6,4.26-4.88a32.72,32.72,0,0,0-4.56-5.9l-5.79,2.91L119.55,159l.57-6.46a32.3,32.3,0,0,0-6.94-2l-3,5.74-6.42.15-3.29-5.58c-.46.1-.92.23-1.37.35a18.49,18.49,0,0,0-3.32,1.11c-.8.32-1.59.65-2.35,1l.94,6.41-5.1,3.9-5.94-2.57a31.78,31.78,0,0,0-4.22,6.15l4.52,4.62L81.8,178l-6.32,1.43a33.36,33.36,0,0,0-.12,3.89,34.62,34.62,0,0,0,.31,3.56L82.06,188,84.21,194l-4.29,4.87a33.32,33.32,0,0,0,4.56,5.92l5.8-2.88,5.3,3.62L95,212a32.66,32.66,0,0,0,7.16,2.11l3-5.76,6.41-.18,3.31,5.58a32.29,32.29,0,0,0,7-2.51l-1-6.41,5.08-3.93,5.95,2.55a32.35,32.35,0,0,0,4.21-6.15l-4.55-4.61,1.8-6.17Z"/><path class="cls-9" d="M139.84,181.28a31.5,31.5,0,0,0-.34-3.66l-6.38-1.06-2.17-6,4.26-4.88a32.72,32.72,0,0,0-4.56-5.9l-5.79,2.91L119.55,159l.57-6.46a32.3,32.3,0,0,0-6.94-2l-3,5.74-6.42.15-3.29-5.58a31.81,31.81,0,0,0-7,2.49l.94,6.41-5.1,3.9-5.94-2.57a31.78,31.78,0,0,0-4.22,6.15l4.52,4.62L81.8,178l-6.32,1.43a33.36,33.36,0,0,0-.12,3.89,34.62,34.62,0,0,0,.31,3.56L82.06,188,84.21,194l-4.29,4.87a33.32,33.32,0,0,0,4.56,5.92l5.8-2.88,5.3,3.62L95,212a32.66,32.66,0,0,0,7.16,2.11l3-5.76,6.41-.18,3.31,5.58a32.29,32.29,0,0,0,7-2.51l-1-6.41,5.08-3.93,5.95,2.55a32.35,32.35,0,0,0,4.21-6.15l-4.55-4.61,1.8-6.17,6.33-1.43A34.25,34.25,0,0,0,139.84,181.28Zm-22.7,11.88a14.45,14.45,0,1,1,1.31-20.41A14.46,14.46,0,0,1,117.14,193.16Z"/><path class="cls-10" d="M123.49,168.34a21.15,21.15,0,1,0-1.93,29.86A21.18,21.18,0,0,0,123.49,168.34Zm-3.3,28.3a19.09,19.09,0,1,1,1.74-26.93A19.09,19.09,0,0,1,120.19,196.64Z"/><path class="cls-11" d="M95.37,205.39l.21.14-.49,6.4L95,212a32.66,32.66,0,0,0,7.16,2.11l-.06-.11,3-5.65,6.41-.18,3.38,5.47-.07.11a32.29,32.29,0,0,0,7-2.51l-.1,0-.86-6.36,5.08-3.93,5.95,2.44v.11a32.35,32.35,0,0,0,4.21-6.15l-.11,0-4.44-4.63,1.8-6.17,6.24-1.51.09.08a34.25,34.25,0,0,0,.1-3.8,31.5,31.5,0,0,0-.34-3.66l-.07.09-1.79-.33C125.65,194.68,108.76,202.17,95.37,205.39Z"/><path class="cls-12" d="M121.56,198.2a21.08,21.08,0,0,0,6.22-9.52q-1.77,1.6-3.58,3a19.1,19.1,0,0,1-16.52,9.66c-1.45.61-2.88,1.16-4.3,1.65A21.1,21.1,0,0,0,121.56,198.2Z"/><path class="cls-13" d="M94.59,158.35l-.61-5.2a22.54,22.54,0,0,1,5.41-2S95.6,152.54,94.59,158.35Z"/><path d="M65.91,159.37a39.08,39.08,0,0,1-8.59-2.53L53,155l.58-6.17L48,151.58l-3.29-3.38a39.09,39.09,0,0,1-5.47-7.1l-2.44-4,4.1-4.66-6.11-1-.66-4.7a40.11,40.11,0,0,1-.37-4.21,39.25,39.25,0,0,1,.14-4.71l.42-4.69,6-1.36L36,107.28l2.2-4.17a38.09,38.09,0,0,1,5.07-7.38l3.1-3.55,5.69,2.45-.9-6.11,4.22-2.08c.83-.41,1.7-.79,2.75-1.21a23.94,23.94,0,0,1,4.25-1.41c.49-.13,1-.26,1.46-.37l4.6-1,3.15,5.33,2.87-5.46,4.64.8a38.14,38.14,0,0,1,8.36,2.46l4.34,1.83-.55,6.16,5.54-2.78,3.3,3.39a38.54,38.54,0,0,1,5.48,7.08l2.42,4L104,109.9l6.09,1,.69,4.65a36.29,36.29,0,0,1,.41,4.44,38.46,38.46,0,0,1-.12,4.5l-.39,4.73-6.05,1.37,4.34,4.4-2.19,4.18a37.9,37.9,0,0,1-5.06,7.4l-3.09,3.56-5.68-2.43.92,6.12-4.23,2.09a38.79,38.79,0,0,1-8.44,3L76.56,160l-3.16-5.33-2.84,5.48Z"/><path class="cls-8" d="M104.59,124a30,30,0,0,0,.1-3.8,29.45,29.45,0,0,0-.33-3.66L98,115.46l-2.17-6,4.26-4.88a32.72,32.72,0,0,0-4.56-5.9l-5.79,2.91-5.31-3.61L85,91.48a32.46,32.46,0,0,0-6.94-2l-3,5.74-6.42.15-3.29-5.58c-.46.1-.92.23-1.37.35a18.49,18.49,0,0,0-3.32,1.11c-.8.32-1.59.65-2.35,1l.94,6.41-5.1,3.9L48.18,100A32.28,32.28,0,0,0,44,106.13l4.53,4.62-1.82,6.15-6.32,1.43a31.3,31.3,0,0,0-.12,3.89,34.62,34.62,0,0,0,.31,3.56l6.39,1.07,2.14,6.05-4.28,4.87a33.32,33.32,0,0,0,4.56,5.92l5.8-2.88,5.3,3.62-.6,6.46A32.57,32.57,0,0,0,67,153l3-5.76,6.41-.18,3.31,5.58a32.29,32.29,0,0,0,7-2.51l-1-6.41,5.08-3.93,6,2.55a32.11,32.11,0,0,0,4.21-6.16l-4.55-4.6,1.8-6.17Z"/><path class="cls-9" d="M104.69,120.18a29.45,29.45,0,0,0-.33-3.66L98,115.46l-2.17-6,4.26-4.88a32.72,32.72,0,0,0-4.56-5.9l-5.79,2.91-5.31-3.61L85,91.48a32.46,32.46,0,0,0-6.94-2l-3,5.74-6.42.15-3.29-5.58a31.81,31.81,0,0,0-7,2.49l.94,6.41-5.1,3.9L48.18,100A32.28,32.28,0,0,0,44,106.13l4.53,4.62-1.82,6.15-6.32,1.43a31.3,31.3,0,0,0-.12,3.89,34.62,34.62,0,0,0,.31,3.56l6.39,1.07,2.14,6.05-4.28,4.87a33.32,33.32,0,0,0,4.56,5.92l5.8-2.88,5.3,3.62-.6,6.46A32.57,32.57,0,0,0,67,153l3-5.76,6.41-.18,3.31,5.58a32.29,32.29,0,0,0,7-2.51l-1-6.41,5.08-3.93,6,2.55a32.11,32.11,0,0,0,4.21-6.16l-4.55-4.6,1.8-6.17,6.32-1.43A30,30,0,0,0,104.69,120.18ZM82,132.06a14.45,14.45,0,1,1,1.32-20.41A14.44,14.44,0,0,1,82,132.06Z"/><path class="cls-10" d="M88.35,107.24a21.15,21.15,0,1,0-1.93,29.86A21.18,21.18,0,0,0,88.35,107.24Zm-3.3,28.3a19.09,19.09,0,1,1,1.74-26.93A19.08,19.08,0,0,1,85.05,135.54Z"/><path class="cls-11" d="M60.23,144.29l.21.14-.49,6.4-.11.06A32.57,32.57,0,0,0,67,153l0-.11,3-5.65,6.41-.18,3.37,5.47-.06.11a32.29,32.29,0,0,0,7-2.51l-.1,0-.86-6.36,5.08-3.93,6,2.44v.11a32.11,32.11,0,0,0,4.21-6.16l-.11,0-4.44-4.63,1.8-6.17,6.24-1.51.08.08a30,30,0,0,0,.1-3.8,29.45,29.45,0,0,0-.33-3.66l-.07.09-1.79-.33C90.51,133.58,73.62,141.07,60.23,144.29Z"/><path class="cls-12" d="M86.42,137.1a21,21,0,0,0,6.21-9.52q-1.75,1.61-3.57,3a19.1,19.1,0,0,1-16.52,9.66c-1.45.61-2.88,1.16-4.3,1.65A21.1,21.1,0,0,0,86.42,137.1Z"/><path class="cls-13" d="M59.45,97.25l-.62-5.2a22.69,22.69,0,0,1,5.42-2S60.45,91.44,59.45,97.25Z"/></g></svg>