<svg id="Capa_1" data-name="Capa 1" xmlns="http://www.w3.org/2000/svg" xmlns:xlink="http://www.w3.org/1999/xlink" viewBox="0 0 270 77"><defs><style>.cls-1{fill:none;}.cls-2{clip-path:url(#clip-path);}.cls-3{fill:#4da6ff;}.cls-4{fill:#fcee21;}.cls-5{fill:#8cc63f;}.cls-6{fill:#f33;}.cls-7{fill:#fff;stroke:#000;stroke-miterlimit:10;stroke-width:2px;}</style><clipPath id="clip-path"><polygon class="cls-1" points="4.12 19.32 4.12 57.95 38.46 77.27 72.8 57.95 72.8 19.32 38.46 0 4.12 19.32"/></clipPath></defs><path d="M103.68,36a6.28,6.28,0,0,1,3.78,2.31,7.18,7.18,0,0,1,1.63,4.8A7.89,7.89,0,0,1,101.18,51H86V21.88H98.64a7.89,7.89,0,0,1,7.91,7.91A7.48,7.48,0,0,1,103.68,36Zm-.29,6.45v-.21a2.85,2.85,0,0,0-2.83-2.83H91.74v5.91h8.82a2.73,2.73,0,0,0,2-.83A2.78,2.78,0,0,0,103.39,42.4ZM91.86,27.58v5.91H98a2.83,2.83,0,0,0,2.83-2.83v-.25A2.83,2.83,0,0,0,98,27.58Z"/><path d="M119.57,21.84h16.32L124.11,37.49V51h-5.7V37.28L106.67,21.84h7.16l7.49,9.82,3.12-4.12H121.2Z"/><path d="M145.08,27.54v6.28h12.28v5.71H145.08v11.4h-5.7V27.54h-1.95l-1.63-5.7h22.56l1.66,5.7Z"/><path d="M189.82,55.8h-6.91L175.42,45H170v5.91h-5.7V27.54h-2l-1.62-5.7H176a10.4,10.4,0,0,1,10.4,10.4v2.38a10.22,10.22,0,0,1-1.37,5.18,10,10,0,0,1-3.74,3.76ZM170,27.54V39.32h5.36a5.39,5.39,0,0,0,5.41-5.41V33a5.39,5.39,0,0,0-5.41-5.41Z"/><path d="M235.63,35.24a8.26,8.26,0,0,1,4.18,3.06,8.17,8.17,0,0,1,1.39,5.22,7.41,7.41,0,0,1-2.76,5.64,9.43,9.43,0,0,1-6.35,2.31h-2.87a8.91,8.91,0,0,1-6.41-2.56,8.68,8.68,0,0,1-2.83-6h5.83a4.66,4.66,0,0,0,4.41,3.37h1a3.37,3.37,0,0,0,2.25-.85,3.22,3.22,0,0,0,1-1.86,3,3,0,0,0-.44-2.06,3.25,3.25,0,0,0-1.89-1.43q-5.58-1.83-7.45-2.42A7.11,7.11,0,0,1,221,35a7.54,7.54,0,0,1-1.25-4.68A8.58,8.58,0,0,1,222.85,24a10.45,10.45,0,0,1,7.08-2.62h.33A9.92,9.92,0,0,1,237,23.84a8.43,8.43,0,0,1,3.08,6ZM225.81,30a2.75,2.75,0,0,0,.5,1.79,2.82,2.82,0,0,0,1.5.92l2,.67,4-4.92a3.84,3.84,0,0,0-3.45-1.83h-.55a4.46,4.46,0,0,0-2.89.94A3,3,0,0,0,225.81,30Z"/><path d="M265.88,27.62h-9.36V51h-5.74V27.62h-9.37V21.88h24.47Z"/><path d="M103.68,36a6.28,6.28,0,0,1,3.78,2.31,7.18,7.18,0,0,1,1.63,4.8A7.89,7.89,0,0,1,101.18,51H86V21.88H98.64a7.89,7.89,0,0,1,7.91,7.91A7.48,7.48,0,0,1,103.68,36Zm-.29,6.45v-.21a2.85,2.85,0,0,0-2.83-2.83H91.74v5.91h8.82a2.73,2.73,0,0,0,2-.83A2.78,2.78,0,0,0,103.39,42.4ZM91.86,27.58v5.91H98a2.83,2.83,0,0,0,2.83-2.83v-.25A2.83,2.83,0,0,0,98,27.58Z"/><path d="M119.57,21.84h16.32L124.11,37.49V51h-5.7V37.28L106.67,21.84h7.16l7.49,9.82,3.12-4.12H121.2Z"/><path d="M145.08,27.54v6.28h12.28v5.71H145.08v11.4h-5.7V27.54h-1.95l-1.63-5.7h22.56l1.66,5.7Z"/><path d="M189.82,55.8h-6.91L175.42,45H170v5.91h-5.7V27.54h-2l-1.62-5.7H176a10.4,10.4,0,0,1,10.4,10.4v2.38a10.22,10.22,0,0,1-1.37,5.18,10,10,0,0,1-3.74,3.76ZM170,27.54V39.32h5.36a5.39,5.39,0,0,0,5.41-5.41V33a5.39,5.39,0,0,0-5.41-5.41Z"/><path d="M235.63,35.24a8.26,8.26,0,0,1,4.18,3.06,8.17,8.17,0,0,1,1.39,5.22,7.41,7.41,0,0,1-2.76,5.64,9.43,9.43,0,0,1-6.35,2.31h-2.87a8.91,8.91,0,0,1-6.41-2.56,8.68,8.68,0,0,1-2.83-6h5.83a4.66,4.66,0,0,0,4.41,3.37h1a3.37,3.37,0,0,0,2.25-.85,3.22,3.22,0,0,0,1-1.86,3,3,0,0,0-.44-2.06,3.25,3.25,0,0,0-1.89-1.43q-5.58-1.83-7.45-2.42A7.11,7.11,0,0,1,221,35a7.54,7.54,0,0,1-1.25-4.68A8.58,8.58,0,0,1,222.85,24a10.45,10.45,0,0,1,7.08-2.62h.33A9.92,9.92,0,0,1,237,23.84a8.43,8.43,0,0,1,3.08,6ZM225.81,30a2.75,2.75,0,0,0,.5,1.79,2.82,2.82,0,0,0,1.5.92l2,.67,4-4.92a3.84,3.84,0,0,0-3.45-1.83h-.55a4.46,4.46,0,0,0-2.89.94A3,3,0,0,0,225.81,30Z"/><path d="M265.88,27.62h-9.36V51h-5.74V27.62h-9.37V21.88h24.47Z"/><path d="M215.89,28.65a14.17,14.17,0,0,0-12.32-7.08H203a14.19,14.19,0,0,0-14.23,14.24v1.45a13.94,13.94,0,0,0,1.91,7.16,14.2,14.2,0,0,0,5.18,5.2A13.85,13.85,0,0,0,203,51.54h.58a13.85,13.85,0,0,0,7.14-1.92,14.27,14.27,0,0,0,5.18-5.2,14,14,0,0,0,1.91-7.16V35.81A14,14,0,0,0,215.89,28.65ZM203.28,45.56a9,9,0,1,1,8.93-9A9,9,0,0,1,203.28,45.56Z"/><g class="cls-2"><polygon class="cls-3" points="33.53 51.19 -9.56 26.24 -9.56 -37.27 33.53 -55.12 33.53 51.19"/><polygon class="cls-4" points="87.62 40.03 44.52 15.08 44.52 -48.43 87.62 -66.28 87.62 40.03"/><polygon class="cls-3" points="33.53 26.29 -9.56 1.34 -9.56 -62.17 33.53 -80.02 33.53 26.29"/><polygon class="cls-5" points="44.52 134.46 87.62 109.51 87.62 52.37 44.52 28.15 44.52 134.46"/><polygon class="cls-6" points="-2.75 100.44 33.53 111.61 33.53 63.17 -1.88 43.56 -2.75 100.44"/><polygon class="cls-7" points="44.47 15.63 44.47 -4.29 33.31 -4.29 33.31 9.34 33.31 22.15 33.31 50.98 -16.39 23.02 -21.87 32.75 33.31 63.79 33.31 81.56 44.47 81.56 44.47 70.07 44.47 57.26 44.47 28.43 87.3 52.52 92.78 42.8 44.47 15.63"/></g><path d="M38.46,3.44,69.8,21.07V56.19L38.46,73.82,7.12,56.19V21.07L38.46,3.44m0-3.44L4.12,19.32V58L38.46,77.27,72.8,58V19.32L38.46,0Z"/></svg>