<svg xmlns="http://www.w3.org/2000/svg" viewBox="0 0 82.89 100"><defs><style>.cls-1{fill:#fff;}.cls-2{fill:#1f7a68;}.cls-3{fill:#3dad97;}</style></defs><g id="Capa_2" data-name="Capa 2"><g id="Shapes"><path class="cls-1" d="M66.88,52a23.6,23.6,0,0,0-14-42.58l-1,0a25.85,25.85,0,1,0-34.16,38A32.48,32.48,0,0,0,0,76.36V96.09A3.92,3.92,0,0,0,3.91,100H79a3.91,3.91,0,0,0,3.91-3.91V78.38A29.53,29.53,0,0,0,66.88,52Z"/><path class="cls-2" d="M62.28,52.34a21.49,21.49,0,0,0-9.44-40.81,22.15,22.15,0,0,0-3.15.23,1.77,1.77,0,0,0-1.18.71A1.81,1.81,0,0,0,48.89,15a1.72,1.72,0,0,0,1.33.32,18.9,18.9,0,0,1,2.62-.19A17.9,17.9,0,1,1,40.19,45.7a1.81,1.81,0,1,0-2.56,2.55A21.33,21.33,0,0,0,48,54a1.81,1.81,0,0,0,1.86.9,22.62,22.62,0,0,1,3.94-.34A23.63,23.63,0,0,1,77.17,78.38v15.9H61a1.81,1.81,0,0,0,0,3.62H79a1.82,1.82,0,0,0,1.81-1.81V78.38A27.46,27.46,0,0,0,62.28,52.34Z"/><path class="cls-3" d="M41.73,47.46a23.73,23.73,0,1,0-19.17.23A30.38,30.38,0,0,0,2.11,76.36V96.09a1.81,1.81,0,0,0,1.8,1.81H61a1.81,1.81,0,0,0,1.8-1.81V76.36A30.4,30.4,0,0,0,41.73,47.46ZM31.9,46A20.14,20.14,0,1,1,52.05,25.86,20.16,20.16,0,0,1,31.9,46Zm.56,3.61A26.78,26.78,0,0,1,59.21,76.36V94.28H5.72V76.36A26.78,26.78,0,0,1,32.46,49.61Z"/></g></g></svg>