<svg id="Capa_1" data-name="Capa 1" xmlns="http://www.w3.org/2000/svg" xmlns:xlink="http://www.w3.org/1999/xlink" viewBox="0 0 100 100"><defs><style>.cls-1{fill:none;}.cls-2{clip-path:url(#clip-path);}.cls-3{fill:#4da6ff;}.cls-4{fill:#fcee21;}.cls-5{fill:#8cc63f;}.cls-6{fill:#f33;}.cls-7{fill:#fff;stroke:#000;stroke-miterlimit:10;stroke-width:2px;}</style><clipPath id="clip-path"><polygon class="cls-1" points="10 27.5 10 72.5 50 95 90 72.5 90 27.5 50 5 10 27.5"/></clipPath></defs><g class="cls-2"><polygon class="cls-3" points="44.26 64.63 -5.94 35.56 -5.94 -38.41 44.26 -59.21 44.26 64.63"/><polygon class="cls-4" points="107.26 51.63 57.06 22.56 57.06 -51.41 107.26 -72.21 107.26 51.63"/><polygon class="cls-3" points="44.26 35.63 -5.94 6.56 -5.94 -67.41 44.26 -88.21 44.26 35.63"/><polygon class="cls-5" points="57.06 161.63 107.26 132.56 107.26 66 57.06 37.79 57.06 161.63"/><polygon class="cls-6" points="2 122 44.26 135 44.26 78.59 3.02 55.74 2 122"/><polygon class="cls-7" points="57 23.2 57 0 44 0 44 15.88 44 30.8 44 64.38 -13.89 31.82 -20.27 43.15 44 79.3 44 100 57 100 57 86.62 57 71.7 57 38.12 106.89 66.18 113.27 54.85 57 23.2"/></g><path d="M50,8.44,87,29.25v41.5L50,91.56,13,70.75V29.25L50,8.44M50,5,10,27.5v45L50,95,90,72.5v-45L50,5Z"/></svg>