<svg id="Capa_1" data-name="Capa 1" xmlns="http://www.w3.org/2000/svg" xmlns:xlink="http://www.w3.org/1999/xlink" viewBox="0 0 100 100"><defs><style>.cls-1{fill:none;}.cls-2{clip-path:url(#clip-path);}.cls-3{fill:#8cc63f;}.cls-4{fill:#006837;}.cls-5,.cls-7{fill:#fff;}.cls-6{clip-path:url(#clip-path-2);}.cls-7{stroke:#000;stroke-miterlimit:10;stroke-width:2px;}</style><clipPath id="clip-path"><rect class="cls-1" y="70" width="100" height="40"/></clipPath><clipPath id="clip-path-2"><polygon class="cls-1" points="130 27.5 130 72.5 170 95 210 72.5 210 27.5 170 5 130 27.5"/></clipPath></defs><g class="cls-2"><polygon class="cls-3" points="9.83 27.5 9.83 72.5 49.83 95 89.83 72.5 89.83 27.5 49.83 5 9.83 27.5"/></g><path class="cls-3" d="M50,9.59,86,29.84V70.16L50,90.41,14,70.16V29.84L50,9.59M50,5,10,27.5v45L50,95,90,72.5v-45L50,5Z"/><polygon class="cls-3" points="36.67 56.97 36.67 48.34 37.27 48 45 52.35 45 61.04 44.45 61.35 36.67 56.97"/><polygon class="cls-3" points="36.67 41.97 36.67 33.34 37.27 33 45 37.35 45 46.04 44.45 46.35 36.67 41.97"/><polygon class="cls-3" points="36.67 26.97 36.67 18.34 37.27 18 45 22.35 45 31.04 44.45 31.35 36.67 26.97"/><polygon class="cls-3" points="63 56.97 63 48.34 62.39 48 54.67 52.35 54.67 61.04 55.22 61.35 63 56.97"/><polygon class="cls-3" points="63 41.97 63 33.34 62.39 33 54.67 37.35 54.67 46.04 55.22 46.35 63 41.97"/><polygon class="cls-3" points="63 26.97 63 18.34 62.39 18 54.67 22.35 54.67 31.04 55.22 31.35 63 26.97"/><rect class="cls-4" x="46.33" y="30" width="7" height="50"/><polygon class="cls-5" points="39.72 88.17 39.72 76.83 49.83 71.15 59.94 76.83 59.94 88.17 49.83 93.85 39.72 88.17"/><path class="cls-4" d="M49.83,72.29l9.11,5.13V87.58l-9.11,5.13-9.11-5.13V77.42l9.11-5.13m0-2.29L38.72,76.25v12.5L49.83,95l11.11-6.25V76.25L49.83,70Z"/><g class="cls-6"><polygon class="cls-7" points="177 23.2 177 0 164 0 164 15.88 164 30.8 164 64.38 106.11 31.82 99.73 43.15 164 79.3 164 100 177 100 177 86.62 177 71.7 177 38.12 226.89 66.18 233.27 54.85 177 23.2"/></g></svg>